# xmcd
#
# Track frame offsets: 
#        150
#        43426
#        62452
#        79809
#        103374
#        111800
#        143631
#        158503
#        178102
#        223166
#        245147
#        268064
#        295226
#        333455
#
# Disc length: 4533 seconds
#
# Revision: 0
# Processed by: cddbd v1.5.2PL0 Copyright (c) Steve Scherf et al.
# Submitted via: ExactAudioCopyFreeDBPlugin 1.0
#
DISCID=db11b30e
DTITLE=Mr. Stress Blues Band  - Live at the Brick Cottage 1972-1973 
DYEAR=2016
DGENRE=Blues
TTITLE0=Mr. Stress Blues Band - How Many More Years
TTITLE1=Mr. Stress Blues Band - Walkin' Through the Park
TTITLE2=Mr. Stress Blues Band - Good Time Charlie
TTITLE3=Mr. Stress Blues Band - Scratch My Back
TTITLE4=Mr. Stress Blues Band - Chicken Shack (Break Song #1)
TTITLE5=Mr. Stress Blues Band - Get Out of My Life Woman
TTITLE6=Mr. Stress Blues Band - Big Boss Man
TTITLE7=Mr. Stress Blues Band - I Feel So Bad
TTITLE8=Mr. Stress Blues Band - Sweet Little Angel
TTITLE9=Mr. Stress Blues Band - Rock Me Baby
TTITLE10=Mr. Stress Blues Band - Crosscut Saw
TTITLE11=Mr. Stress Blues Band - Help Me
TTITLE12=Mr. Stress Blues Band - Black Night
TTITLE13=Mr. Stress Blues Band - Chicken Shack (Break Song #2)
EXTD=
EXTT0=
EXTT1=
EXTT2=
EXTT3=
EXTT4=
EXTT5=
EXTT6=
EXTT7=
EXTT8=
EXTT9=
EXTT10=
EXTT11=
EXTT12=
EXTT13=
PLAYORDER=
